<svg width="100" height="100" viewBox="0 0 100 100" fill="none" xmlns="http://www.w3.org/2000/svg">
  <rect width="100" height="100" rx="20" fill="#3498DB" />
  <rect width="100" height="100" rx="20" fill="url(#paint0_linear)" />
  <path d="M30 35C30 32.2386 32.2386 30 35 30H65C67.7614 30 70 32.2386 70 35V65C70 67.7614 67.7614 70 65 70H35C32.2386 70 30 67.7614 30 65V35Z" fill="white" fill-opacity="0.15" />
  <path d="M36.5 42.5C36.5 40.0147 38.5147 38 41 38H59C61.4853 38 63.5 40.0147 63.5 42.5V57.5C63.5 59.9853 61.4853 62 59 62H41C38.5147 62 36.5 59.9853 36.5 57.5V42.5Z" stroke="white" stroke-width="3" />
  <path d="M42 50H58M42 45H58M42 55H52" stroke="white" stroke-width="3" stroke-linecap="round" />
  <path d="M28 60C28 57.7909 29.7909 56 32 56H40C42.2091 56 44 57.7909 44 60V68C44 70.2091 42.2091 72 40 72H32C29.7909 72 28 70.2091 28 68V60Z" fill="#2ECC71" />
  <path d="M36 61V67M33 64H39" stroke="white" stroke-width="2" stroke-linecap="round" />
  <defs>
    <linearGradient id="paint0_linear" x1="0" y1="0" x2="100" y2="100" gradientUnits="userSpaceOnUse">
      <stop stop-color="#3498DB" />
      <stop offset="1" stop-color="#2980B9" />
    </linearGradient>
  </defs>
</svg> 